<svg width="205" height="190" viewBox="0 0 205 190" fill="none" xmlns="http://www.w3.org/2000/svg">
<path d="M26.5032 141.518V147.358H11.0168V157.213H23.4268V162.845H11.0168V178.331H3.66463V141.518H26.5032ZM30.6331 141.153C30.6331 139.971 31.0502 139.016 31.8845 138.286C32.7188 137.521 33.8138 137.138 35.1695 137.138C36.5252 137.138 37.6202 137.521 38.4545 138.286C39.2888 139.016 39.7059 139.971 39.7059 141.153C39.7059 142.301 39.2888 143.256 38.4545 144.021C37.6202 144.751 36.5252 145.116 35.1695 145.116C33.8138 145.116 32.7188 144.751 31.8845 144.021C31.0502 143.256 30.6331 142.301 30.6331 141.153ZM38.8195 149.444V178.331H31.4674V149.444H38.8195ZM62.6777 149.027C66.0149 149.027 68.6742 150.122 70.6556 152.312C72.637 154.502 73.6277 157.578 73.6277 161.541V178.331H66.3277V162.376C66.3277 160.081 65.7368 158.308 64.5549 157.057C63.373 155.771 61.7565 155.128 59.7056 155.128C57.6199 155.128 55.9513 155.806 54.6999 157.161C53.4484 158.517 52.8227 160.464 52.8227 163.001V178.331H45.4706V149.444H52.8227V155.232C53.5875 153.285 54.8389 151.773 56.577 150.696C58.3499 149.583 60.3834 149.027 62.6777 149.027ZM128.381 141.518L119.36 178.331H110.287L103.405 151.634L96.4696 178.331H87.4488L78.4281 141.518H86.406L92.0374 170.041L99.3374 141.518H107.42L114.772 170.041L120.403 141.518H128.381ZM132.576 141.153C132.576 139.971 132.994 139.016 133.828 138.286C134.662 137.521 135.757 137.138 137.113 137.138C138.469 137.138 139.564 137.521 140.398 138.286C141.232 139.016 141.649 139.971 141.649 141.153C141.649 142.301 141.232 143.256 140.398 144.021C139.564 144.751 138.469 145.116 137.113 145.116C135.757 145.116 134.662 144.751 133.828 144.021C132.994 143.256 132.576 142.301 132.576 141.153ZM140.763 149.444V178.331H133.411V149.444H140.763ZM157.373 149.079C160.884 149.079 163.7 149.966 165.82 151.738C167.941 153.511 169.262 155.875 169.783 158.83H162.9C162.622 157.439 161.997 156.327 161.023 155.493C160.05 154.658 158.781 154.241 157.217 154.241C155.965 154.241 154.992 154.537 154.297 155.128C153.602 155.719 153.254 156.518 153.254 157.526C153.254 158.326 153.532 158.969 154.088 159.456C154.644 159.942 155.34 160.325 156.174 160.603C157.008 160.881 158.208 161.211 159.772 161.593C161.962 162.08 163.735 162.601 165.09 163.158C166.481 163.679 167.663 164.531 168.636 165.713C169.644 166.86 170.148 168.424 170.148 170.406C170.148 172.874 169.175 174.872 167.228 176.402C165.316 177.931 162.727 178.696 159.459 178.696C155.705 178.696 152.698 177.862 150.438 176.193C148.179 174.49 146.806 172.074 146.319 168.946H153.358C153.532 170.371 154.158 171.501 155.235 172.335C156.313 173.134 157.721 173.534 159.459 173.534C160.71 173.534 161.666 173.239 162.327 172.648C162.987 172.022 163.318 171.222 163.318 170.249C163.318 169.415 163.022 168.737 162.431 168.216C161.875 167.694 161.162 167.294 160.293 167.016C159.459 166.738 158.26 166.408 156.695 166.026C154.54 165.539 152.785 165.052 151.429 164.566C150.108 164.044 148.961 163.227 147.988 162.115C147.049 161.002 146.58 159.473 146.58 157.526C146.58 155.023 147.536 152.99 149.448 151.426C151.359 149.861 154.001 149.079 157.373 149.079ZM202.79 162.793C202.79 163.523 202.704 164.357 202.53 165.296H181.36C181.464 167.868 182.159 169.762 183.445 170.979C184.732 172.196 186.331 172.804 188.243 172.804C189.946 172.804 191.354 172.387 192.466 171.553C193.613 170.718 194.343 169.589 194.656 168.163H202.425C202.043 170.18 201.226 171.987 199.975 173.586C198.723 175.185 197.107 176.437 195.125 177.341C193.179 178.244 191.006 178.696 188.608 178.696C185.792 178.696 183.289 178.105 181.099 176.923C178.909 175.707 177.206 173.986 175.989 171.761C174.772 169.536 174.164 166.912 174.164 163.888C174.164 160.863 174.772 158.239 175.989 156.014C177.206 153.755 178.909 152.034 181.099 150.852C183.289 149.67 185.792 149.079 188.608 149.079C191.458 149.079 193.944 149.67 196.064 150.852C198.219 152.034 199.87 153.668 201.018 155.753C202.2 157.804 202.79 160.151 202.79 162.793ZM195.386 162.063C195.49 159.699 194.865 157.909 193.509 156.692C192.188 155.475 190.554 154.867 188.608 154.867C186.626 154.867 184.958 155.475 183.602 156.692C182.246 157.909 181.499 159.699 181.36 162.063H195.386Z" fill="#00D09E"/>
<path d="M99.4343 119.109V66.3307H120.64V119.109M63.9294 119.109V93.5043H85.1346V119.109M135.795 119.109V41.1126H157V119.109M48 77.9212L93.364 32.5572L108.805 46.4699L149.911 5.38354M148.974 24.1647L150.868 7.01316C150.904 6.65223 150.858 6.28797 150.735 5.9468C150.612 5.60563 150.415 5.29608 150.158 5.04063C149.9 4.78517 149.589 4.5902 149.247 4.46983C148.905 4.34946 148.541 4.30671 148.18 4.3447L131.048 6.23909" stroke="#00D09E" stroke-width="8.6625" stroke-linecap="round" stroke-linejoin="round"/>
</svg>
