<svg width="206" height="196" viewBox="0 0 206 196" fill="none" xmlns="http://www.w3.org/2000/svg">
<path d="M26.4916 147.714V153.606H11.318V162.939H22.9458V168.727H11.318V184.109H4.01799V147.714H26.4916ZM35.3701 151.781C34.0839 151.781 33.0063 151.381 32.1372 150.582C31.303 149.747 30.8858 148.722 30.8858 147.505C30.8858 146.289 31.303 145.28 32.1372 144.481C33.0063 143.647 34.0839 143.229 35.3701 143.229C36.6563 143.229 37.7165 143.647 38.5508 144.481C39.4199 145.28 39.8544 146.289 39.8544 147.505C39.8544 148.722 39.4199 149.747 38.5508 150.582C37.7165 151.381 36.6563 151.781 35.3701 151.781ZM38.968 155.222V184.109H31.668V155.222H38.968ZM62.1882 154.805C65.6297 154.805 68.4106 155.9 70.5311 158.09C72.6516 160.245 73.7118 163.27 73.7118 167.163V184.109H66.4118V168.154C66.4118 165.859 65.8382 164.104 64.6911 162.887C63.544 161.636 61.9797 161.01 59.9982 161.01C57.982 161.01 56.383 161.636 55.2011 162.887C54.0539 164.104 53.4804 165.859 53.4804 168.154V184.109H46.1804V155.222H53.4804V158.82C54.4537 157.569 55.6878 156.595 57.1825 155.9C58.712 155.17 60.3806 154.805 62.1882 154.805ZM129.303 147.714L119.135 184.109H110.532L103.701 158.194L96.5573 184.109L88.0059 184.162L78.203 147.714H86.0244L92.438 175.975L99.8423 147.714H107.977L114.964 175.819L121.429 147.714H129.303ZM137.772 151.781C136.486 151.781 135.408 151.381 134.539 150.582C133.705 149.747 133.287 148.722 133.287 147.505C133.287 146.289 133.705 145.28 134.539 144.481C135.408 143.647 136.486 143.229 137.772 143.229C139.058 143.229 140.118 143.647 140.952 144.481C141.822 145.28 142.256 146.289 142.256 147.505C142.256 148.722 141.822 149.747 140.952 150.582C140.118 151.381 139.058 151.781 137.772 151.781ZM141.37 155.222V184.109H134.07V155.222H141.37ZM159.636 184.579C157.272 184.579 155.152 184.162 153.275 183.327C151.398 182.458 149.903 181.294 148.791 179.834C147.713 178.374 147.122 176.757 147.018 174.984H154.37C154.509 176.097 155.048 177.018 155.986 177.748C156.96 178.478 158.159 178.843 159.584 178.843C160.975 178.843 162.052 178.565 162.817 178.009C163.617 177.453 164.016 176.74 164.016 175.871C164.016 174.932 163.53 174.237 162.556 173.785C161.618 173.299 160.106 172.777 158.02 172.221C155.865 171.699 154.092 171.161 152.701 170.604C151.346 170.048 150.164 169.197 149.156 168.049C148.182 166.902 147.696 165.355 147.696 163.409C147.696 161.81 148.147 160.35 149.051 159.029C149.99 157.708 151.311 156.665 153.014 155.9C154.752 155.135 156.786 154.753 159.115 154.753C162.556 154.753 165.302 155.622 167.353 157.36C169.404 159.064 170.534 161.375 170.743 164.295H163.756C163.651 163.148 163.165 162.244 162.296 161.584C161.461 160.889 160.332 160.541 158.906 160.541C157.585 160.541 156.56 160.784 155.83 161.271C155.135 161.758 154.787 162.435 154.787 163.304C154.787 164.278 155.274 165.025 156.247 165.547C157.22 166.033 158.732 166.537 160.783 167.059C162.869 167.58 164.59 168.119 165.946 168.675C167.301 169.231 168.466 170.1 169.439 171.282C170.447 172.429 170.969 173.959 171.003 175.871C171.003 177.539 170.534 179.034 169.596 180.355C168.692 181.676 167.371 182.719 165.633 183.484C163.929 184.214 161.931 184.579 159.636 184.579ZM203.849 169.04C203.849 170.083 203.78 171.022 203.641 171.856H182.523C182.697 173.942 183.427 175.575 184.713 176.757C185.999 177.939 187.581 178.53 189.458 178.53C192.169 178.53 194.099 177.366 195.246 175.037H203.119C202.285 177.818 200.686 180.112 198.322 181.919C195.958 183.692 193.056 184.579 189.614 184.579C186.833 184.579 184.331 183.97 182.106 182.754C179.916 181.502 178.195 179.747 176.944 177.487C175.727 175.228 175.119 172.621 175.119 169.666C175.119 166.676 175.727 164.052 176.944 161.792C178.16 159.533 179.864 157.795 182.054 156.578C184.244 155.361 186.764 154.753 189.614 154.753C192.361 154.753 194.811 155.344 196.967 156.526C199.157 157.708 200.842 159.394 202.024 161.584C203.241 163.739 203.849 166.224 203.849 169.04ZM196.289 166.954C196.254 165.077 195.576 163.583 194.255 162.47C192.934 161.323 191.318 160.749 189.406 160.749C187.598 160.749 186.069 161.306 184.817 162.418C183.601 163.496 182.853 165.008 182.575 166.954H196.289Z" fill="white"/>
<path d="M100.434 119.109V66.3307H121.64V119.109M64.9294 119.109V93.5043H86.1346V119.109M136.795 119.109V41.1126H158V119.109M49 77.9212L94.364 32.5572L109.805 46.4699L150.911 5.38359M149.974 24.1647L151.868 7.01321C151.904 6.65227 151.858 6.28801 151.735 5.94684C151.612 5.60567 151.415 5.29613 151.158 5.04067C150.9 4.78521 150.589 4.59025 150.247 4.46988C149.905 4.34951 149.541 4.30676 149.18 4.34474L132.048 6.23914" stroke="#0E3E3E" stroke-width="8.6625" stroke-linecap="round" stroke-linejoin="round"/>
</svg>
