<svg width="31" height="31" viewBox="0 0 31 31" fill="none" xmlns="http://www.w3.org/2000/svg">
<circle cx="15.5" cy="15.5" r="15.5" fill="#00D09E"/>
<path d="M8.52402 18.739C8.15718 19.6682 7.97965 20.6612 8.00185 21.6599C8.00185 25.8011 22.9907 25.8011 22.9981 21.6599C23.0204 20.6612 22.8429 19.6682 22.476 18.739C22.1092 17.8098 21.5604 16.9633 20.8619 16.2492C20.1635 15.535 19.3294 14.9676 18.4086 14.5801C17.4878 14.1927 16.4989 13.9932 15.5 13.9932C14.5011 13.9932 13.5122 14.1927 12.5914 14.5801C11.6706 14.9676 10.8365 15.535 10.1381 16.2492C9.4396 16.9633 8.89086 17.8098 8.52402 18.739Z" stroke="#2C2C28" stroke-width="1.5" stroke-linecap="round" stroke-linejoin="round"/>
<path d="M15.4944 12.0208C17.157 12.0208 18.5048 10.673 18.5048 9.01038C18.5048 7.34779 17.157 6 15.4944 6C13.8319 6 12.4841 7.34779 12.4841 9.01038C12.4841 10.673 13.8319 12.0208 15.4944 12.0208Z" stroke="#2C2C28" stroke-width="1.5" stroke-linecap="round" stroke-linejoin="round"/>
</svg>
