<svg width="31" height="31" viewBox="0 0 31 31" fill="none" xmlns="http://www.w3.org/2000/svg">
<circle cx="15.5" cy="15.5" r="15.5" fill="#00D09E"/>
<path d="M8.40231 20.5145C8.53999 20.6038 8.69924 20.6504 8.86142 20.6488H21.1346C21.2974 20.6519 21.4576 20.6062 21.5962 20.5172C21.7347 20.4283 21.8458 20.2998 21.9163 20.1469C21.9867 19.9941 22.0136 19.8235 21.9936 19.6553C21.9736 19.4871 21.9076 19.3284 21.8035 19.1981C21.0245 18.1051 20.4966 16.8408 20.2602 15.5023C19.8491 13.3226 20.41 11.0196 18.9398 9.14448C18.4608 8.53876 17.8593 8.05048 17.1783 7.71447C16.4972 7.37845 15.7534 7.20296 14.9997 7.2005C14.9986 7.2005 14.9974 7.20051 14.9963 7.20051C14.2437 7.20275 13.5008 7.37785 12.8207 7.7134C12.1396 8.04947 11.5382 8.53818 11.0597 9.14448C9.58952 11.0196 10.1469 13.3262 9.73584 15.5023C9.49947 16.8408 8.97152 18.1051 8.19255 19.1981C8.08993 19.3288 8.02523 19.4873 8.00601 19.655C7.9868 19.8227 8.01386 19.9925 8.08405 20.1448C8.15423 20.297 8.26464 20.4253 8.40231 20.5145Z" fill="#00D09E"/>
<path d="M8.86142 20.6488L8.85418 19.8988H8.86142V20.6488ZM8.40231 20.5145L8.81033 19.8852L8.81033 19.8852L8.40231 20.5145ZM8.00601 19.655L8.75113 19.7404V19.7404L8.00601 19.655ZM8.19255 19.1981L8.8033 19.6334L8.79325 19.6475L8.78256 19.6611L8.19255 19.1981ZM9.73584 15.5023L8.99722 15.3719L8.99887 15.3631L9.73584 15.5023ZM11.0597 9.14448L10.4694 8.68172L10.4709 8.67981L11.0597 9.14448ZM12.8207 7.7134L13.1526 8.38599V8.38599L12.8207 7.7134ZM14.9963 7.20051L14.9985 7.95051H14.9985L14.9963 7.20051ZM14.9997 7.2005L14.998 6.45049L15.0022 6.45051L14.9997 7.2005ZM17.1783 7.71447L16.8464 8.38706V8.38706L17.1783 7.71447ZM18.9398 9.14448L19.5281 8.67925L19.5301 8.68173L18.9398 9.14448ZM20.2602 15.5023L20.9972 15.3633L20.9988 15.3719L20.2602 15.5023ZM21.8035 19.1981L21.2175 19.6662L21.2047 19.6501L21.1927 19.6334L21.8035 19.1981ZM21.9936 19.6553L21.2488 19.7438L21.9936 19.6553ZM21.9163 20.1469L22.5974 20.461L22.5974 20.461L21.9163 20.1469ZM21.1346 20.6488V19.8987L21.1487 19.8989L21.1346 20.6488ZM14.2463 6C14.2463 5.58579 14.582 5.25 14.9963 5.25C15.4105 5.25 15.7463 5.58579 15.7463 6H14.2463ZM14.9997 24L14.9982 23.25H14.9997V24ZM15.6738 23.8602L15.3765 23.1717L15.3765 23.1717L15.6738 23.8602ZM16.245 23.4623L16.7864 23.9813H16.7864L16.245 23.4623ZM16.6261 22.8668L15.9288 22.5906H15.9288L16.6261 22.8668ZM8.86866 21.3988C8.55738 21.4018 8.25399 21.3122 7.99429 21.1438L8.81033 19.8852C8.82598 19.8954 8.8411 19.899 8.85418 19.8988L8.86866 21.3988ZM7.9943 21.1438C7.73494 20.9757 7.53118 20.7369 7.40295 20.4588L8.76514 19.8308C8.77729 19.8571 8.79433 19.8748 8.81033 19.8852L7.9943 21.1438ZM7.40295 20.4588C7.27483 20.1809 7.22614 19.8728 7.26089 19.5696L8.75113 19.7404C8.74745 19.7725 8.7529 19.8042 8.76514 19.8308L7.40295 20.4588ZM7.26089 19.5696C7.29564 19.2663 7.41293 18.9767 7.60255 18.735L8.78256 19.6611C8.76694 19.681 8.75481 19.7083 8.75113 19.7404L7.26089 19.5696ZM7.5818 18.7628C8.29517 17.7619 8.78004 16.602 8.99727 15.3719L10.4744 15.6327C10.2189 17.0797 9.64787 18.4484 8.8033 19.6334L7.5818 18.7628ZM8.99887 15.3631C9.09202 14.87 9.13231 14.3585 9.16037 13.8158C9.18758 13.2896 9.20403 12.7039 9.25352 12.1444C9.35456 11.0021 9.60355 9.78612 10.4694 8.68173L11.6499 9.60724C11.0456 10.3779 10.8382 11.2528 10.7477 12.2766C10.7014 12.8002 10.6882 13.3164 10.6584 13.8933C10.6294 14.4537 10.5852 15.0466 10.4728 15.6415L8.99887 15.3631ZM10.4709 8.67981C11.0174 7.98751 11.706 7.42709 12.4889 7.04081L13.1526 8.38599C12.5732 8.67186 12.059 9.08885 11.6484 9.60915L10.4709 8.67981ZM12.4889 7.04081C13.2707 6.65506 14.1262 6.4531 14.994 6.45051L14.9985 7.95051C14.3611 7.9524 13.7309 8.10064 13.1526 8.38599L12.4889 7.04081ZM14.994 6.45051C14.9953 6.45051 14.9967 6.45051 14.998 6.4505L15.0014 7.9505C15.0005 7.9505 14.9995 7.9505 14.9985 7.95051L14.994 6.45051ZM15.0022 6.45051C15.871 6.45335 16.7274 6.6557 17.5101 7.04188L16.8464 8.38706C16.2671 8.1012 15.6358 7.95258 14.9973 7.9505L15.0022 6.45051ZM17.5101 7.04188C18.2927 7.42799 18.9812 7.98776 19.5281 8.67925L18.3516 9.60971C17.9404 9.08975 17.426 8.67298 16.8464 8.38706L17.5101 7.04188ZM19.5301 8.68173C20.3961 9.78631 20.6441 11.0016 20.7443 12.1436C20.7933 12.7027 20.8093 13.2886 20.8362 13.8147C20.864 14.3575 20.904 14.8694 20.9972 15.3633L19.5232 15.6413C19.4108 15.0454 19.3668 14.452 19.3382 13.8913C19.3087 13.314 19.2959 12.7982 19.25 12.2747C19.1603 11.2515 18.9537 10.3777 18.3496 9.60724L19.5301 8.68173ZM20.9988 15.3719C21.216 16.602 21.7009 17.7619 22.4142 18.7628L21.1927 19.6334C20.3481 18.4484 19.7771 17.0797 19.5216 15.6327L20.9988 15.3719ZM22.3894 18.7299C22.5823 18.9713 22.7021 19.2619 22.7383 19.5667L21.2488 19.7438C21.245 19.7122 21.2329 19.6855 21.2175 19.6662L22.3894 18.7299ZM22.7383 19.5667C22.7745 19.8714 22.7262 20.1815 22.5974 20.461L21.2352 19.8329C21.2473 19.8068 21.2526 19.7755 21.2488 19.7438L22.7383 19.5667ZM22.5974 20.461C22.4685 20.7406 22.263 20.9804 22.0013 21.1484L21.191 19.8861C21.2065 19.8762 21.2232 19.8589 21.2352 19.8329L22.5974 20.461ZM22.0013 21.1484C21.7393 21.3166 21.4335 21.4046 21.1205 21.3987L21.1487 19.8989C21.1613 19.8992 21.1758 19.8958 21.191 19.8861L22.0013 21.1484ZM21.1346 21.3988H8.86142V19.8988H21.1346V21.3988ZM14.2463 7.20051V6H15.7463V7.20051H14.2463ZM13.987 22.1662C13.9867 22.3127 14.0142 22.4572 14.0674 22.5911L12.6731 23.1443C12.5494 22.8324 12.4863 22.4992 12.487 22.1634L13.987 22.1662ZM14.0674 22.5911C14.1205 22.7249 14.1977 22.8446 14.2932 22.944L13.2114 23.9831C12.9793 23.7415 12.7968 23.4562 12.6731 23.1443L14.0674 22.5911ZM14.2932 22.944C14.3886 23.0433 14.5002 23.1204 14.6209 23.1723L14.0283 24.5503C13.7208 24.418 13.4435 24.2248 13.2114 23.9831L14.2932 22.944ZM14.6209 23.1723C14.7415 23.2241 14.8696 23.2503 14.9982 23.25L15.0013 24.75C14.6666 24.7507 14.3359 24.6825 14.0283 24.5503L14.6209 23.1723ZM14.9997 23.25C15.1281 23.25 15.2561 23.2237 15.3765 23.1717L15.9711 24.5488C15.6642 24.6813 15.334 24.75 14.9997 24.75V23.25ZM15.3765 23.1717C15.4969 23.1197 15.6084 23.0426 15.7036 22.9432L16.7864 23.9813C16.5548 24.2229 16.278 24.4162 15.9711 24.5488L15.3765 23.1717ZM15.7036 22.9432C15.7988 22.8439 15.8759 22.7243 15.9288 22.5906L17.3234 23.1431C17.1999 23.4546 17.018 23.7397 16.7864 23.9813L15.7036 22.9432ZM15.9288 22.5906C15.9818 22.4568 16.0093 22.3126 16.009 22.1662L17.509 22.1634C17.5097 22.4987 17.4468 22.8316 17.3234 23.1431L15.9288 22.5906Z" fill="#093030"/>
</svg>
