<svg width="31" height="31" viewBox="0 0 31 31" fill="none" xmlns="http://www.w3.org/2000/svg">
<circle cx="15.5" cy="15.5" r="15.5" fill="#00D09E"/>
<path d="M10.9382 20C13.6655 20 15.8764 17.7614 15.8764 15C15.8764 12.2386 13.6655 10 10.9382 10C8.21091 10 6 12.2386 6 15C6 17.7614 8.21091 20 10.9382 20Z" fill="#00D09E"/>
<path d="M15.8712 15H26V18.0351M20.9356 15V18.0351M15.8764 15C15.8764 17.7614 13.6655 20 10.9382 20C8.21091 20 6 17.7614 6 15C6 12.2386 8.21091 10 10.9382 10C13.6655 10 15.8764 12.2386 15.8764 15Z" stroke="#093030" stroke-width="1.5" stroke-linecap="round" stroke-linejoin="round"/>
</svg>
